<svg id="Layer_1" data-name="Layer 1" xmlns="http://www.w3.org/2000/svg" viewBox="0 0 959.9 959.83">
  <title>HCA Klang</title>
  <path d="M480,.17C215.26.17,0,215.46,0,480.05S215.26,960,480,960,959.9,744.77,959.9,480.05,744.55.17,480,.17ZM726.73,811.28A414.3,414.3,0,0,1,588,878.82h-.16a337.34,337.34,0,0,1-82.94,8.67c-42.87-.82-83.92-8.8-121.13-24.65-64-27.33-44.31-115.38,25.37-123.31,104.81-11.77,139.57,127.31,339.65,52.33C741.77,798.68,734.3,805.1,726.73,811.28ZM410,294.3a11.64,11.64,0,1,1,11.61,11.64A11.64,11.64,0,0,1,410,294.3ZM621,568.52c-119.35,0-206.76-85.38-206.76-170.47s35.32-87.09,70.28-90.12c-42.94-18.87-28.48-50.2-83.36-50.2-71.32,0-104.35,111.34-188,111.34-73,0-110.4-58.18-83.49-107.68.45-.76.93-1.65,1.39-2.48C179.12,183.17,251,123.89,336,92.08A427.41,427.41,0,0,1,480,67,411.06,411.06,0,0,1,687,122.73,416,416,0,0,1,829,259.47,410.25,410.25,0,0,1,892.54,458C839.11,511.38,776,568.52,621,568.52Z" transform="translate(0 -0.17)" style="fill: #ec7b24"/>
</svg>
